<svg xmlns="http://www.w3.org/2000/svg" viewBox="0 0 418.66 463.11"><defs><style>.a885331d-82c8-4bf7-8a15-ef19f2555428{fill:#FFF;}.a1d22af2-cf52-49cd-836f-631618d81f4e{fill:#FFF;}</style></defs><title>Asset 2XDR_icons</title><g id="b112682a-145f-4db8-b072-431b8b3867bb" data-name="Layer 2"><g id="e2dfa157-b30b-45e4-8841-c1dba6138bb2" data-name="Layer 1"><path class="a885331d-82c8-4bf7-8a15-ef19f2555428" d="M148.2,191.16c-5-14.31-14-32.65-56.69-59.87-20.8-13.73-51.32-31-91.51-74.9C2.87,68.23,15.57,99,79.57,139c21,14.35,48.15,23.2,68.63,52.14"/><path class="a885331d-82c8-4bf7-8a15-ef19f2555428" d="M150.84,211.91c-5.25-12.12-15.81-27.66-57.17-49.85C74.6,151.37,42,134.94,12.72,103.69,15.37,115,29,139.76,87.5,170.71c16.22,8.93,43.61,17.3,63.34,41.2"/><path class="a885331d-82c8-4bf7-8a15-ef19f2555428" d="M213.89,339.58l-93.77-54.13V211.91a2.64,2.64,0,0,1,5.27,0v70.5l88.5,51.09,88.5-51.09V180.21l-88.5-51.1-56.55,32.65a2.63,2.63,0,1,1-2.63-4.56L213.89,123l93.77,54.14V285.45Z"/><path class="a1d22af2-cf52-49cd-836f-631618d81f4e" d="M214.85,259.68a27.89,27.89,0,1,1,27.89-27.89A27.92,27.92,0,0,1,214.85,259.68Zm0-50.51a22.62,22.62,0,1,0,22.62,22.62A22.65,22.65,0,0,0,214.85,209.17Z"/><path class="a885331d-82c8-4bf7-8a15-ef19f2555428" d="M241.78,27.89a27.89,27.89,0,1,0-30.52,27.75V102.8a2.63,2.63,0,0,0,5.26,0V55.64A27.92,27.92,0,0,0,241.78,27.89ZM213.89,50.51a22.62,22.62,0,1,1,22.62-22.62A22.65,22.65,0,0,1,213.89,50.51Z"/><path class="a885331d-82c8-4bf7-8a15-ef19f2555428" d="M216.52,407.47V360.32a2.63,2.63,0,1,0-5.26,0v47.15a27.89,27.89,0,1,0,5.26,0Zm-2.63,50.38a22.62,22.62,0,1,1,22.62-22.62A22.65,22.65,0,0,1,213.89,457.85Z"/><path class="a885331d-82c8-4bf7-8a15-ef19f2555428" d="M390.78,101.23a27.92,27.92,0,0,0-27.89,27.89,27.56,27.56,0,0,0,2.54,11.59l-41.21,23.8a2.63,2.63,0,0,0,1.32,4.91,2.6,2.6,0,0,0,1.31-.35l41.22-23.8a27.88,27.88,0,1,0,22.71-44Zm0,50.51a22.62,22.62,0,1,1,22.62-22.62A22.65,22.65,0,0,1,390.78,151.74Z"/><path class="a885331d-82c8-4bf7-8a15-ef19f2555428" d="M390.78,305.28A27.87,27.87,0,0,0,368.07,317l-41.22-23.79a2.63,2.63,0,1,0-2.63,4.56l41.21,23.79a27.6,27.6,0,0,0-2.54,11.6,27.89,27.89,0,1,0,27.89-27.89Zm0,50.51a22.62,22.62,0,1,1,22.62-22.62A22.65,22.65,0,0,1,390.78,355.79Z"/><path class="a885331d-82c8-4bf7-8a15-ef19f2555428" d="M104.88,294.18a2.63,2.63,0,0,0-3.6-1l-41,23.66a27.74,27.74,0,1,0,2.57,4.59l41-23.69A2.63,2.63,0,0,0,104.88,294.18ZM37.36,355.31A22.62,22.62,0,1,1,60,332.69,22.65,22.65,0,0,1,37.36,355.31Z"/><circle class="a1d22af2-cf52-49cd-836f-631618d81f4e" cx="258.07" cy="205.74" r="10.47"/></g></g></svg>