<svg xmlns="http://www.w3.org/2000/svg" viewBox="0 0 35.80634 24.46469">
  <defs>
    <style>
      .cls-1 {
        fill: #FFF;
      }

      .cls-2 {
        fill: #FFF;
      }
    </style>
  </defs>
  <title>FalconInsight  _ Outline</title>
  <g id="Layer_2" data-name="Layer 2">
    <g id="Layer_1-2" data-name="Layer 1">
      <g>
        <g>
          <path class="cls-1" d="M25.28634,12.25941h-.31467a.199.199,0,0,1,0-.39805h.31467a2.00363,2.00363,0,1,0-.6097-3.912.199.199,0,0,1-.256-.2273,2.03152,2.03152,0,0,0,.03732-.38162,2.00154,2.00154,0,0,0-3.31186-1.51512.19915.19915,0,0,1-.31817-.085,2.9467,2.9467,0,0,0-5.5905,1.86311.19892.19892,0,0,1-.17454.2586,2.00264,2.00264,0,0,0,.15452,3.99939.199.199,0,0,1,0,.39805,2.40068,2.40068,0,0,1-.42292-4.764A3.3446,3.3446,0,0,1,21.104,5.35631,2.39947,2.39947,0,0,1,24.856,7.34041c0,.05141-.00175.1034-.00525.15558a2.40163,2.40163,0,1,1,.43556,4.76342Z"/>
          <path class="cls-1" d="M21.18092,6.59475a.19907.19907,0,0,1-.19786-.17919,2.9334,2.9334,0,0,0-.14985-.67715A.19909.19909,0,0,1,21.2091,5.607a3.344,3.344,0,0,1,.17006.76888.199.199,0,0,1-.17822.21787Z"/>
          <path class="cls-1" d="M24.34215,8.67467a.199.199,0,0,1-.17026-.30174,1.9811,1.9811,0,0,0,.24975-.65071.19911.19911,0,0,1,.391.07522,2.37871,2.37871,0,0,1-.2999.78093A.19886.19886,0,0,1,24.34215,8.67467Z"/>
          <path class="cls-1" d="M15.86446,7.95089a.19974.19974,0,0,1-.05831-.00885,2.01041,2.01041,0,0,0-.74362-.08192.20172.20172,0,0,1-.21359-.18328.199.199,0,0,1,.18328-.2136,2.3972,2.3972,0,0,1,.89054.09825.19907.19907,0,0,1-.0583.3894Z"/>
          <path class="cls-2" d="M23.00033,12.14376v3.92373h-5.497V12.14376h5.497m0-.398h-5.497a.398.398,0,0,0-.398.398v3.92373a.398.398,0,0,0,.398.39805h5.497a.398.398,0,0,0,.398-.39805V12.14376a.398.398,0,0,0-.398-.398Z"/>
          <path class="cls-2" d="M22.13969,11.94474a.199.199,0,0,1-.199-.199V10.31a1.68975,1.68975,0,0,0-3.37774,0v1.43572a.199.199,0,0,1-.398,0V10.31a2.08763,2.08763,0,0,1,4.17384,0v1.43572A.199.199,0,0,1,22.13969,11.94474Z"/>
          <path class="cls-2" d="M20.25189,14.77663a.199.199,0,0,1-.199-.199V13.319a.199.199,0,0,1,.398,0v1.25866A.199.199,0,0,1,20.25189,14.77663Z"/>
        </g>
        <g>
          <path class="cls-1" d="M8.99663,24.46469H.79609A.79694.79694,0,0,1,0,23.6686V21.73124a.797.797,0,0,1,.79609-.79609H8.99663a.797.797,0,0,1,.79609.79609V23.6686A.79694.79694,0,0,1,8.99663,24.46469ZM.79609,21.3332a.39851.39851,0,0,0-.398.398V23.6686a.39851.39851,0,0,0,.398.398H8.99663a.3985.3985,0,0,0,.398-.398V21.73124a.3985.3985,0,0,0-.398-.398Z"/>
          <path class="cls-1" d="M8.99663,19.54375H.79609A.797.797,0,0,1,0,18.74766V16.8102a.79694.79694,0,0,1,.79609-.79609H8.99663a.79694.79694,0,0,1,.79609.79609v1.93746A.797.797,0,0,1,8.99663,19.54375ZM.79609,16.41216a.3985.3985,0,0,0-.398.398v1.93746a.39851.39851,0,0,0,.398.398H8.99663a.3985.3985,0,0,0,.398-.398V16.8102a.39849.39849,0,0,0-.398-.398Z"/>
          <path class="cls-1" d="M8.99663,14.6227H.79609A.79694.79694,0,0,1,0,13.82661V11.88926a.79694.79694,0,0,1,.79609-.79609H8.99663a.79694.79694,0,0,1,.79609.79609v1.93735A.79694.79694,0,0,1,8.99663,14.6227ZM.79609,11.49121a.39851.39851,0,0,0-.398.398v1.93735a.39851.39851,0,0,0,.398.398H8.99663a.3985.3985,0,0,0,.398-.398V11.88926a.3985.3985,0,0,0-.398-.398Z"/>
          <path class="cls-1" d="M4.89646,16.41216a.199.199,0,0,1-.199-.199V14.42368a.199.199,0,0,1,.39805,0v1.78945A.199.199,0,0,1,4.89646,16.41216Z"/>
          <path class="cls-1" d="M4.89646,21.3332a.199.199,0,0,1-.199-.199V19.34472a.199.199,0,0,1,.39805,0v1.78946A.199.199,0,0,1,4.89646,21.3332Z"/>
          <circle class="cls-1" cx="7.87538" cy="12.85793" r="0.38541"/>
          <circle class="cls-1" cx="7.87538" cy="17.77898" r="0.38541"/>
          <circle class="cls-1" cx="7.87538" cy="22.69992" r="0.38541"/>
        </g>
        <path class="cls-1" d="M35.60732,12.25241a.199.199,0,0,1-.199-.199V1.21726A.82019.82019,0,0,0,34.58908.398H5.9147a.82019.82019,0,0,0-.81922.81922V9.19662a.199.199,0,0,1-.39805,0V1.21726A1.21869,1.21869,0,0,1,5.9147,0H34.58908a1.21868,1.21868,0,0,1,1.21726,1.21726V12.05339A.199.199,0,0,1,35.60732,12.25241Z"/>
        <path class="cls-1" d="M35.60732,2.07215H7.13526a.199.199,0,0,1,0-.39805H35.60732a.199.199,0,0,1,0,.39805Z"/>
        <path class="cls-1" d="M34.46489,20.51971H12.13143a.199.199,0,1,1,0-.398H34.46489a.94432.94432,0,0,0,.94341-.94322V16.00128a.199.199,0,0,1,.398,0v3.17717A1.34288,1.34288,0,0,1,34.46489,20.51971Z"/>
        <path class="cls-1" d="M35.60732,18.26244H9.5937a.199.199,0,1,1,0-.398H35.60732a.199.199,0,1,1,0,.398Z"/>
        <g>
          <path class="cls-1" d="M16.99484,23.14179a.199.199,0,0,1-.199-.199V20.35354a.199.199,0,1,1,.398,0v2.58923A.199.199,0,0,1,16.99484,23.14179Z"/>
          <path class="cls-1" d="M23.50874,23.14179a.199.199,0,0,1-.199-.199V20.35354a.199.199,0,1,1,.398,0v2.58923A.199.199,0,0,1,23.50874,23.14179Z"/>
        </g>
        <path class="cls-1" d="M25.49508,24.46469H23.5103a.199.199,0,1,1,0-.398h1.98478a.18131.18131,0,0,0,.18114-.181v-.417a.18132.18132,0,0,0-.18114-.18114H15.0087a.18132.18132,0,0,0-.18114.18114v.417a.18131.18131,0,0,0,.18114.181h5.0362a.199.199,0,0,1,0,.398H15.0087a.57981.57981,0,0,1-.57919-.57909v-.417a.57989.57989,0,0,1,.57919-.57919H25.49508a.57988.57988,0,0,1,.57918.57919v.417A.5798.5798,0,0,1,25.49508,24.46469Z"/>
      </g>
    </g>
  </g>
</svg>
