<svg xmlns="http://www.w3.org/2000/svg" viewBox="0 0 33.69091 13.98486">
  <defs>
    <style>
      .cls-1 {
        fill: #FFF;
      }

      .cls-2 {
        fill: #FFF;
      }
    </style>
  </defs>
  <title>FalconSearchEngine _ Outline</title>
  <g id="Layer_2" data-name="Layer 2">
    <g id="Layer_1-2" data-name="Layer 1">
      <g>
        <path class="cls-1" d="M26.63839,12.8195H7.05252a5.827,5.827,0,0,1,0-11.65406H26.63839a5.827,5.827,0,1,1,0,11.65406ZM7.05252,1.53034a5.46213,5.46213,0,0,0,0,10.92426H26.63839a5.46213,5.46213,0,1,0,0-10.92426Z"/>
        <path class="cls-1" d="M26.69844,13.98486H6.99247A6.99243,6.99243,0,1,1,6.99247,0a.18245.18245,0,1,1,0,.3649,6.62753,6.62753,0,1,0,0,13.25506h19.706a6.62753,6.62753,0,1,0,0-13.25506H11.19116a.18245.18245,0,0,1,0-.3649H26.69844a6.99243,6.99243,0,1,1,0,13.98486Z"/>
        <path class="cls-1" d="M15.36366,10.38866h-7.205a.18245.18245,0,0,1,0-.3649h7.205a.18245.18245,0,1,1,0,.3649Z"/>
        <g>
          <path class="cls-2" d="M27.48383,9.76871a3.42911,3.42911,0,0,1-2.3471-1.06629,3.30646,3.30646,0,0,1-1.04766-2.64679.12972.12972,0,0,0-.10335-.12936,1.25858,1.25858,0,1,1,1.56171-1.52348v.00009a.10379.10379,0,0,0,.12009.07332,3.3059,3.3059,0,0,1,2.64785,1.04758,3.58747,3.58747,0,0,1,1.03769,1.94264,2.00053,2.00053,0,0,1-.49835,1.77542A1.89624,1.89624,0,0,1,27.48383,9.76871ZM24.32942,3.82087a.87667.87667,0,0,0-.478.13951.90239.90239,0,0,0-.41051.66237.89348.89348,0,0,0,.64392.95234.488.488,0,0,1,.366.52847,2.93878,2.93878,0,0,0,.944,2.34086c1.03163,1.03137,2.46808,1.27324,3.202.53942a1.64687,1.64687,0,0,0,.39573-1.46121,3.22123,3.22123,0,0,0-.93506-1.74086,2.93727,2.93727,0,0,0-2.34158-.94388.471.471,0,0,1-.52187-.34441h0a.90671.90671,0,0,0-.39537-.53818A.87226.87226,0,0,0,24.32942,3.82087Z"/>
          <path class="cls-2" d="M23.07026,4.59041a1.14079,1.14079,0,0,1-.80553-.33239,1.12491,1.12491,0,0,1-.2694-.42851.18246.18246,0,0,1,.34459-.12009A.76411.76411,0,0,0,22.52273,4a.77526.77526,0,0,0,.74014.20089.18246.18246,0,0,1,.09194.35314A1.13108,1.13108,0,0,1,23.07026,4.59041Z"/>
          <path class="cls-2" d="M23.99143,3.875a.18231.18231,0,0,1-.17693-.2278.77454.77454,0,0,0-.20152-.73738.76483.76483,0,0,0-.29114-.183.18246.18246,0,0,1,.12009-.34459,1.12428,1.12428,0,0,1,.42905.26958,1.1412,1.1412,0,0,1,.297,1.08606A.18256.18256,0,0,1,23.99143,3.875Z"/>
          <g>
            <path class="cls-2" d="M26.92044,4.94025a.18245.18245,0,0,1-.129-.31144l1.20393-1.20393-.01158-1.53222a.1825.1825,0,0,1,.181-.18378h.00142a.18246.18246,0,0,1,.18245.18111l.01265,1.68491-1.3119,1.3119A.18183.18183,0,0,1,26.92044,4.94025Z"/>
            <path class="cls-2" d="M29.06121,7.081a.18246.18246,0,0,1-.129-.31145l1.3119-1.31182,1.685.01257a.18245.18245,0,0,1-.00143.3649h-.00142l-1.53213-.01149L29.19021,7.02757A.18183.18183,0,0,1,29.06121,7.081Z"/>
            <path class="cls-2" d="M28.22058,5.78079a.18245.18245,0,0,1-.129-.31144l1.82647-1.8263a.18243.18243,0,0,1,.258.258L28.34958,5.72734A.18182.18182,0,0,1,28.22058,5.78079Z"/>
          </g>
          <g>
            <path class="cls-2" d="M23.18786,8.7483l-1.685-.01256a.18246.18246,0,0,1,.00142-.36491h.00143l1.53212.0115,1.20393-1.20384a.18243.18243,0,0,1,.258.258Z"/>
            <path class="cls-2" d="M25.26573,12.49719a.18247.18247,0,0,1-.18245-.18112l-.01265-1.68491,1.3119-1.3119a.18243.18243,0,1,1,.258.258L25.4366,10.78118l.01158,1.53222a.1825.1825,0,0,1-.181.18379Z"/>
            <path class="cls-2" d="M23.3851,10.61646a.18245.18245,0,0,1-.129-.31145l1.82629-1.82629a.18243.18243,0,1,1,.258.258L23.5141,10.563A.18189.18189,0,0,1,23.3851,10.61646Z"/>
          </g>
        </g>
        <path class="cls-1" d="M7.3253,11.22208a1.01582,1.01582,0,1,1,1.01578-1.01587A1.01689,1.01689,0,0,1,7.3253,11.22208Zm0-1.66674a.65092.65092,0,1,0,.65088.65087A.65161.65161,0,0,0,7.3253,9.55534Z"/>
      </g>
    </g>
  </g>
</svg>
