<svg xmlns="http://www.w3.org/2000/svg" viewBox="0 0 32.56864 37.24447">
  <defs>
    <style>
      .cls-1 {
        fill: #FFF;
      }

      .cls-2 {
        fill: #FFF;
      }
    </style>
  </defs>
  <title>FalconX _ Outline</title>
  <g id="Layer_2" data-name="Layer 2">
    <g id="Layer_1-2" data-name="Layer 1">
      <g>
        <g>
          <path class="cls-1" d="M8.714,19.51157l2.66377,1.83148A1.62575,1.62575,0,0,1,8.714,19.51157m-.109-.62532a2.07919,2.07919,0,1,0,3.396,2.33494L8.605,18.88625Z"/>
          <path class="cls-1" d="M5.867,2.82993l.002.00244A17.073,17.073,0,0,1,6.8991,4.23045c.12479.19267.24337.39758.35244.609a.27688.27688,0,0,1-.08069.34714L5.25136,6.64937a.27024.27024,0,0,1-.16681.05776.27856.27856,0,0,1-.27625-.226L4.195,3.35879a.27909.27909,0,0,1,.235-.33019l1.18061-.16589c.05237-.00741.15728-.02223.25632-.03278m.1698-.46543a4.11406,4.11406,0,0,0-.48962.04916L4.367,2.57949A.73263.73263,0,0,0,3.75,3.44622l.61327,3.12234a.73235.73235,0,0,0,.72127.59209.724.724,0,0,0,.4417-.15056L7.44574,5.54736a.73056.73056,0,0,0,.20885-.91579c-.09954-.193-.22449-.41551-.37482-.64764A17.55275,17.55275,0,0,0,6.2175,2.5421l-.02636-.03167-.023-.03344a1.03947,1.03947,0,0,0-.08592-.11116c-.01107-.00067-.02591-.00133-.04539-.00133Z"/>
          <path class="cls-2" d="M4.10648,25.04459a.22633.22633,0,0,1-.126-.03831A6.91978,6.91978,0,0,1,.89575,19.24294V16.1757a7.87555,7.87555,0,0,1,2.16551-4.85209A43.85879,43.85879,0,0,1,9.24092,6.64093,1.58318,1.58318,0,0,0,9.7808,4.60474l-.47611-.94093a.22675.22675,0,0,1,.072-.28832,11.95165,11.95165,0,0,1,6.90777-2.10461A11.95143,11.95143,0,0,1,23.192,3.37549a.22675.22675,0,0,1,.072.28832l-.47611.94093a1.58318,1.58318,0,0,0,.53989,2.03619,43.82887,43.82887,0,0,1,6.18408,4.68733A7.87032,7.87032,0,0,1,31.6729,16.1757v3.06724a6.91988,6.91988,0,0,1-3.08474,5.76356.22694.22694,0,0,1-.3521-.20638,21.29577,21.29577,0,0,0-.293-5.8249l-.02281-.10032-5.89355-3.02649-4.60717,5.75935a.227.227,0,0,1-.17715.085H15.32624a.22706.22706,0,0,1-.17716-.085l-4.60717-5.75935L4.64836,18.87468l-.02259.10076a21.16279,21.16279,0,0,0-.29319,5.82468.22694.22694,0,0,1-.2261.24447Zm17.85891-9.70927a.22759.22759,0,0,1,.10364.025l6.15264,3.15936a.227.227,0,0,1,.11759.15147l.04628.20395a21.51067,21.51067,0,0,1,.33571,5.47635,6.4641,6.4641,0,0,0,2.49813-5.10853V16.1757a7.386,7.386,0,0,0-2.03664-4.53542,43.51146,43.51146,0,0,0-6.10525-4.62112,2.03658,2.03658,0,0,1-.69445-2.619l.38687-.76421A11.5294,11.5294,0,0,0,16.28443,1.7244,11.52956,11.52956,0,0,0,9.79874,3.63591l.38686.76421a2.03658,2.03658,0,0,1-.69445,2.619,43.54215,43.54215,0,0,0-6.10082,4.61647A7.39189,7.39189,0,0,0,1.34927,16.1757v3.06724a6.46444,6.46444,0,0,0,2.49812,5.10853,21.35,21.35,0,0,1,.33594-5.47635l.04606-.20373A.2272.2272,0,0,1,4.347,18.5197l6.15264-3.15936a.22742.22742,0,0,1,.2808.06l4.65478,5.81892h1.69826l4.65479-5.81892A.22718.22718,0,0,1,21.96539,15.33532Z"/>
          <path class="cls-2" d="M16.67307,36.3299a.22675.22675,0,0,1-.22676-.22676V30.62745a.22676.22676,0,0,1,.45352,0v5.2383a10.28406,10.28406,0,0,0,6.72065-3.52785,18.46467,18.46467,0,0,0,3.5274-5.95334,22.3286,22.3286,0,0,0,.24492-4.24644l-6.565,3.73955a.22721.22721,0,0,1-.2726-.03676l-3.43152-3.43152H15.44493l-3.43151,3.43152a.22734.22734,0,0,1-.2726.03676l-6.565-3.73955a22.3292,22.3292,0,0,0,.24492,4.24644,18.4887,18.4887,0,0,0,3.53516,5.962A10.2761,10.2761,0,0,0,15.669,35.86575v-5.2383a.22676.22676,0,0,1,.45352,0v5.47569a.22649.22649,0,0,1-.06909.163.21388.21388,0,0,1-.165.06355A10.62438,10.62438,0,0,1,8.616,32.64659a18.9218,18.9218,0,0,1-3.631-6.13514.21691.21691,0,0,1-.0093-.03765,22.83319,22.83319,0,0,1-.23628-4.72808.22684.22684,0,0,1,.33881-.18513L11.815,25.398l3.37571-3.37571a.22661.22661,0,0,1,.16033-.06644H17.2176a.22659.22659,0,0,1,.16033.06644L20.75364,25.398l6.73682-3.83743a.22684.22684,0,0,1,.33881.18513A22.83458,22.83458,0,0,1,27.593,26.4738a.21874.21874,0,0,1-.0093.03765A18.89826,18.89826,0,0,1,23.9604,32.638a10.63215,10.63215,0,0,1-7.28,3.69171Z"/>
          <path class="cls-2" d="M16.414,37.24447h-.25909A11.09377,11.09377,0,0,1,8.325,33.66259,17.63172,17.63172,0,0,1,4.1572,26.87373l-.264-.85123A7.84665,7.84665,0,0,1,0,19.2538V16.18633A7.81343,7.81343,0,0,1,2.66355,10.305L1.09748,2.48218A1.633,1.633,0,0,1,2.37855.56026L4.78433.09434A4.96074,4.96074,0,0,1,5.74252,0,2.40373,2.40373,0,0,1,7.939.77506c.29851.38266.933,1.2959,1.20489,1.68941a13.3054,13.3054,0,0,1,14.28079,0c.27193-.39351.90638-1.30675,1.20511-1.68963A2.40371,2.40371,0,0,1,26.82612,0a4.96768,4.96768,0,0,1,.95952.09456L30.189.56a1.63266,1.63266,0,0,1,1.28217,1.92214L29.90532,10.305a7.81356,7.81356,0,0,1,2.66332,5.88137V19.2538a7.84665,7.84665,0,0,1-3.89323,6.7687l-.26219.84547a17.63215,17.63215,0,0,1-4.16959,6.79462A11.09372,11.09372,0,0,1,16.414,37.24447Zm-.12977-.45352H16.414a10.65257,10.65257,0,0,0,7.509-3.449A17.16963,17.16963,0,0,0,27.98185,26.728l.28677-.92475a.22677.22677,0,0,1,.10474-.13021,7.39317,7.39317,0,0,0,3.74176-6.41926V16.18633a7.36184,7.36184,0,0,0-2.60464-5.62316.22688.22688,0,0,1-.07573-.21746L31.0265,2.39316a1.17909,1.17909,0,0,0-.925-1.38824L27.698.53944a4.5291,4.5291,0,0,0-.87183-.08592c-.79587,0-1.37075,0-1.83866.60034-.36937.47323-1.30586,1.83711-1.31539,1.85084a.22636.22636,0,0,1-.314.05957,12.83837,12.83837,0,0,0-14.14748,0,.22641.22641,0,0,1-.314-.05957c-.00952-.01373-.946-1.37761-1.31516-1.85084C7.11349.45352,6.5384.45352,5.74252.45352a4.52217,4.52217,0,0,0-.8705.0857l-2.406.46592a1.17939,1.17939,0,0,0-.92387,1.388l1.592,7.95255a.2269.2269,0,0,1-.07574.21746A7.36175,7.36175,0,0,0,.45352,16.18633V19.2538a7.39319,7.39319,0,0,0,3.74176,6.41926A.22678.22678,0,0,1,4.3,25.80327l.28854.93051a17.16993,17.16993,0,0,0,4.0571,6.60815,10.65269,10.65269,0,0,0,7.50922,3.449Z"/>
          <path class="cls-2" d="M16.28532,29.89846a.86211.86211,0,0,1-.63644-.28168l-2.354-2.59114a.89635.89635,0,0,1,.00288-1.21352l.21768-.23761a.908.908,0,0,1,.68161-.29164l2.09221.041.04252-.00111,2.04018-.03986a.90882.90882,0,0,1,.68117.29164l.2179.23761v.00022a.89608.89608,0,0,1,.00266,1.2133l-2.352,2.59092a.86064.86064,0,0,1-.63621.2819Zm-2.10661-4.16229a.44605.44605,0,0,0-.32885.14482l-.21768.23761a.44465.44465,0,0,0-.00155.60211l2.354,2.59092a.40172.40172,0,0,0,.30072.13331h.00022a.40184.40184,0,0,0,.3005-.13309l2.352-2.59114a.44488.44488,0,0,0-.00132-.60211l-.21791-.23761a.43853.43853,0,0,0-.3377-.1446l-2.09178.041-2.10129-.041Z"/>
          <path class="cls-1" d="M23.85468,19.51157a1.62593,1.62593,0,0,1-2.66376,1.83148l2.66376-1.83148m.109-.62532-3.396,2.33494a2.07941,2.07941,0,1,0,3.396-2.33494Z"/>
          <path class="cls-1" d="M26.70175,2.82993c.09885.01055.2034.02539.25591.03283l1.18086.16588a.27912.27912,0,0,1,.23506.33022l-.61326,3.12228a.2786.2786,0,0,1-.27626.226.27021.27021,0,0,1-.1668-.05776L25.39783,5.18668a.27692.27692,0,0,1-.08075-.34711c.10934-.21191.22792-.417.35238-.60931a17.11046,17.11046,0,0,1,1.02363-1.3901l.0078-.0092.00086-.001m-.17-.46543c-.01948,0-.03432.00066-.04539.00133a1.03947,1.03947,0,0,0-.08592.11116l-.02326.03366-.02613.03167a17.31216,17.31216,0,0,0-1.06227,1.44139c-.1502.23213-.27515.45482-.37477.6479a.73061.73061,0,0,0,.20888.91579l1.91943,1.46269a.724.724,0,0,0,.4417.15056.73245.73245,0,0,0,.72128-.59209l.61326-3.1223a.73265.73265,0,0,0-.617-.86674l-1.18086-.16586a4.09088,4.09088,0,0,0-.48895-.04916Z"/>
        </g>
        <path class="cls-2" d="M9.57,15.19027a.22663.22663,0,0,1-.22676-.22676v-6.487a.22676.22676,0,1,1,.45352,0v6.487A.22663.22663,0,0,1,9.57,15.19027Z"/>
        <path class="cls-2" d="M23.06133,15.19027a.22663.22663,0,0,1-.22676-.22676v-6.487a.22676.22676,0,1,1,.45352,0v6.487A.22663.22663,0,0,1,23.06133,15.19027Z"/>
      </g>
    </g>
  </g>
</svg>
