<svg xmlns="http://www.w3.org/2000/svg" viewBox="0 0 30.18602 33.41788">
  <defs>
    <style>
      .cls-1 {
        fill: #FFF;
      }

      .cls-2 {
        fill: #FFF;
      }
    </style>
  </defs>
  <title>FalconSpotlight _ Outline</title>
  <g id="Layer_2" data-name="Layer 2">
    <g id="Layer_1-2" data-name="Layer 1">
      <g>
        <path class="cls-1" d="M16.8166,6.44562H6.23456a.23.23,0,0,1,0-.46009h10.582a.23.23,0,1,1,0,.46009Z"/>
        <path class="cls-1" d="M16.8166,9.79789H6.23456a.23.23,0,0,1,0-.46009h10.582a.23.23,0,1,1,0,.46009Z"/>
        <path class="cls-1" d="M14.92346,13.14982H6.23456a.23.23,0,0,1,0-.46009h8.6889a.23.23,0,0,1,0,.46009Z"/>
        <path class="cls-1" d="M10.5261,16.50265H6.23456a.23.23,0,0,1,0-.46009H10.5261a.23.23,0,1,1,0,.46009Z"/>
        <path class="cls-1" d="M9.36555,19.855h-3.131a.23.23,0,0,1,0-.46009h3.131a.23.23,0,0,1,0,.46009Z"/>
        <path class="cls-2" d="M10.09477,24.30484H3.678a1.98988,1.98988,0,0,1-1.9875-1.98773V3.634A1.98985,1.98985,0,0,1,3.678,1.64637H19.53827A1.98984,1.98984,0,0,1,21.52577,3.634v9.92426a.23.23,0,1,1-.46008,0V3.634a1.52916,1.52916,0,0,0-1.52742-1.52752H3.678A1.52916,1.52916,0,0,0,2.1506,3.634V22.31711A1.52926,1.52926,0,0,0,3.678,23.84475h6.41676a.23.23,0,0,1,0,.46009Z"/>
        <path class="cls-2" d="M17.37262,28.89281a8.29115,8.29115,0,1,1,8.034-10.34739.23.23,0,1,1-.44571.11367A7.8336,7.8336,0,1,0,22.98489,26.063a.23.23,0,0,1,.32979.32081A8.2262,8.2262,0,0,1,17.37262,28.89281Z"/>
        <path class="cls-2" d="M17.37262,26.17058a5.57521,5.57521,0,0,1-5.56892-5.56891.23.23,0,1,1,.46009,0,5.10883,5.10883,0,0,0,10.21766,0,.23.23,0,1,1,.46009,0A5.57521,5.57521,0,0,1,17.37262,26.17058Z"/>
        <path class="cls-2" d="M14.06641,14.96457a.23.23,0,0,1-.11345-.43033,6.97847,6.97847,0,0,1,6.23725-.30249.23012.23012,0,0,1-.18646.42077,6.51743,6.51743,0,0,0-5.82434.28228A.22928.22928,0,0,1,14.06641,14.96457Z"/>
        <path class="cls-2" d="M17.37262,27.56523a6.94629,6.94629,0,0,1-4.69187-1.81789.23.23,0,1,1,.31-.3399,6.48744,6.48744,0,0,0,4.38185,1.6977.23.23,0,0,1,0,.46009Z"/>
        <path class="cls-2" d="M28.52865,33.41788a1.64709,1.64709,0,0,1-1.17246-.4857l-5.54645-5.54634a.23.23,0,0,1,.32529-.3253l5.54645,5.54634a1.19815,1.19815,0,1,0,1.69433-1.69455L25.204,26.74041a.23.23,0,1,1,.3253-.32529l4.1718,4.17191a1.65828,1.65828,0,0,1-1.17246,2.83085Z"/>
        <path class="cls-2" d="M22.98624,15.04814a.23.23,0,0,1-.23-.23005V2.79726a.23.23,0,0,1,.46009,0V14.81809A.23.23,0,0,1,22.98624,15.04814Z"/>
        <path class="cls-2" d="M.23,23.38388A.23.23,0,0,1,0,23.15383V2.79726A2.80028,2.80028,0,0,1,2.79715,0H14.92346a.23.23,0,0,1,0,.46009H2.79715A2.33979,2.33979,0,0,0,.46009,2.79726V23.15383A.23.23,0,0,1,.23,23.38388Z"/>
        <path class="cls-2" d="M11.14682,25.9511H6.23411a.23.23,0,0,1,0-.46009h4.91271a.23.23,0,0,1,0,.46009Z"/>
      </g>
    </g>
  </g>
</svg>
