<svg xmlns="http://www.w3.org/2000/svg" viewBox="0 0 33.09676 33.67133">
  <defs>
    <style>
      .cls-1 {
        fill: #FFF;
      }

      .cls-2 {
        fill: #FFF;
      }
    </style>
  </defs>
  <title>FalconSandbox _ Outline</title>
  <g id="Layer_2" data-name="Layer 2">
    <g id="Layer_1-2" data-name="Layer 1">
      <g>
        <path class="cls-1" d="M29.2487,11.58884H3.84807a1.82892,1.82892,0,0,1-1.827-1.827V5.91843a1.8291,1.8291,0,0,1,1.827-1.82718h9.489a.22516.22516,0,0,1,0,.45031h-9.489A1.37834,1.37834,0,0,0,2.47142,5.91843V9.76188a1.3783,1.3783,0,0,0,1.37665,1.37665H29.2487a1.37831,1.37831,0,0,0,1.37665-1.37665V5.91843A1.37835,1.37835,0,0,0,29.2487,4.54156H19.69152a.22516.22516,0,0,1,0-.45031H29.2487a1.8291,1.8291,0,0,1,1.827,1.82718V9.76188A1.82892,1.82892,0,0,1,29.2487,11.58884Z"/>
        <path class="cls-1" d="M27.327,26.54047H5.76979a3.74879,3.74879,0,0,1,0-7.49758H27.327a3.74879,3.74879,0,0,1,0,7.49758ZM5.76979,19.49319a3.29849,3.29849,0,0,0,0,6.597H27.327a3.29849,3.29849,0,0,0,0-6.597Z"/>
        <path class="cls-1" d="M27.67548,28.21307H5.42129a5.42129,5.42129,0,1,1,0-10.84257H27.67548a.22516.22516,0,0,1,0,.45031H5.42129a4.971,4.971,0,0,0,0,9.942H27.67548a4.97143,4.97143,0,0,0,3.97339-7.95867.22516.22516,0,0,1,.35972-.27089,5.37317,5.37317,0,0,1,1.08817,3.25858A5.42752,5.42752,0,0,1,27.67548,28.21307Z"/>
        <path class="cls-1" d="M13.7212,2.77265H9.44745a.22516.22516,0,0,1,0-.45031H13.7212a.22516.22516,0,1,1,0,.45031Z"/>
        <path class="cls-1" d="M29.79223,13.358H3.30475A3.30837,3.30837,0,0,1,0,10.05322V5.62709A3.30837,3.30837,0,0,1,3.30475,2.32234H4.59609a.22516.22516,0,0,1,0,.45031H3.30475A2.85775,2.85775,0,0,0,.45031,5.62709v4.42613a2.85776,2.85776,0,0,0,2.85444,2.85444H29.79223a2.85757,2.85757,0,0,0,2.85422-2.85444V5.62709a2.85757,2.85757,0,0,0-2.85422-2.85444H19.69152a.22516.22516,0,0,1,0-.45031H29.79223a3.30832,3.30832,0,0,1,3.30453,3.30475v4.42613A3.30832,3.30832,0,0,1,29.79223,13.358Z"/>
        <path class="cls-2" d="M16.502,8.88369a.89287.89287,0,0,1-.4358-.11258c-.8883-.49472-2.95427-1.8496-2.95427-3.7412V4.30739a.22516.22516,0,0,1,.45031,0v.72252c0,1.65281,1.90436,2.89182,2.723,3.34762a.44173.44173,0,0,0,.44547-.00659c.64182-.38215,2.73571-1.75242,2.73571-3.341V.89864a.44874.44874,0,0,0-.44811-.44833H14.01034a.44874.44874,0,0,0-.44811.44833v.99318a.44855.44855,0,0,0,.44811.44811h3.83993a.22516.22516,0,1,1,0,.45031H14.01034a.89945.89945,0,0,1-.89842-.89842V.89864A.89949.89949,0,0,1,14.01034,0h5.00792a.89949.89949,0,0,1,.89842.89864V5.02991c0,1.77616-2.06685,3.19877-2.95559,3.728A.89822.89822,0,0,1,16.502,8.88369Z"/>
        <path class="cls-1" d="M8.12995,17.82081a.225.225,0,0,1-.22515-.22515V13.13281a.22516.22516,0,0,1,.45031,0v4.46285A.225.225,0,0,1,8.12995,17.82081Z"/>
        <path class="cls-1" d="M24.967,17.82081a.225.225,0,0,1-.22515-.22515V13.13281a.22516.22516,0,0,1,.45031,0v4.46285A.225.225,0,0,1,24.967,17.82081Z"/>
        <path class="cls-1" d="M16.54838,31.40217a.225.225,0,0,1-.22515-.22515v-3.1891a.22516.22516,0,0,1,.45031,0V31.177A.225.225,0,0,1,16.54838,31.40217Z"/>
        <path class="cls-1" d="M6.05167,9.64732a1.80717,1.80717,0,1,1,1.807-1.80717A1.8092,1.8092,0,0,1,6.05167,9.64732Zm0-3.164A1.35686,1.35686,0,1,0,7.40832,7.84015,1.35831,1.35831,0,0,0,6.05167,6.48329Z"/>
        <path class="cls-1" d="M10.33334,9.64732a1.80717,1.80717,0,1,1,1.80717-1.80717A1.80921,1.80921,0,0,1,10.33334,9.64732Zm0-3.164A1.35686,1.35686,0,1,0,11.6902,7.84015,1.35831,1.35831,0,0,0,10.33334,6.48329Z"/>
        <path class="cls-1" d="M6.05167,24.599a1.80717,1.80717,0,1,1,1.807-1.80717A1.8092,1.8092,0,0,1,6.05167,24.599Zm0-3.164a1.35686,1.35686,0,1,0,1.35665,1.35686A1.35831,1.35831,0,0,0,6.05167,21.43493Z"/>
        <path class="cls-1" d="M10.33334,24.599a1.80717,1.80717,0,1,1,1.80717-1.80717A1.80921,1.80921,0,0,1,10.33334,24.599Zm0-3.164a1.35686,1.35686,0,1,0,1.35686,1.35686A1.35831,1.35831,0,0,0,10.33334,21.43493Z"/>
        <path class="cls-1" d="M24.967,32.31444H8.12995a.22516.22516,0,0,1,0-.45031H24.967a.22516.22516,0,1,1,0,.45031Z"/>
        <circle class="cls-1" cx="16.54839" cy="32.08936" r="1.58197"/>
      </g>
    </g>
  </g>
</svg>
