<svg xmlns="http://www.w3.org/2000/svg" viewBox="0 0 25.91555 33.97381">
  <defs>
    <style>
      .cls-1 {
        fill: #FFF;
      }

      .cls-2 {
        fill: #FFF;
      }
    </style>
  </defs>
  <title>FalconPrevent _ Outline</title>
  <g id="Layer_2" data-name="Layer 2">
    <g id="Layer_1-2" data-name="Layer 1">
      <g>
        <path class="cls-1" d="M12.95642,29.93292a.34994.34994,0,1,1-.34992.34994.34953.34953,0,0,1,.34992-.34994m0-.38795a.7379.7379,0,1,0,.73791.73789.73871.73871,0,0,0-.73791-.73789Z"/>
        <path class="cls-1" d="M12.95626,33.97381a.1943.1943,0,0,1-.0879-.021l-.62057-.31512a30.094,30.094,0,0,1-7.957-6.1147C2.3334,25.407,0,22.19258,0,18.89527a.194.194,0,1,1,.388,0c0,3.17172,2.27733,6.29912,4.18773,8.36419a29.68019,29.68019,0,0,0,7.8479,6.03231l.53268.2705.53324-.2705a23.71824,23.71824,0,0,0,2.10059-1.21652.194.194,0,0,1,.21027.326,24.0781,24.0781,0,0,1-2.13525,1.23641l-.62115.31512A.19287.19287,0,0,1,12.95626,33.97381Z"/>
        <path class="cls-1" d="M17.606,31.08992a.194.194,0,0,1-.11764-.34836c7.45957-5.67144,8.03923-10.50115,8.03923-11.84629V14.87376a.194.194,0,0,1,.388,0v4.02151A11.38782,11.38782,0,0,1,23.351,25.44983a28.35806,28.35806,0,0,1-5.62777,5.6005A.19286.19286,0,0,1,17.606,31.08992Z"/>
        <path class="cls-1" d="M25.72157,10.02919a.19392.19392,0,0,1-.194-.194V4.82166A4.47439,4.47439,0,0,0,24.349,1.50426,4.38352,4.38352,0,0,0,21.1349.388l-.04527.0001H4.8244C.96458.42612.388,3.18214.388,4.82166a.194.194,0,0,1-.38795,0C0,3.38625.47.043,4.82251.00009h16.266L21.136,0a4.75074,4.75074,0,0,1,3.48627,1.22921,4.84858,4.84858,0,0,1,1.29324,3.59245V9.83521A.19393.19393,0,0,1,25.72157,10.02919Z"/>
        <path class="cls-1" d="M1.50351,13.92368a.19393.19393,0,0,1-.194-.194V5.154A3.52774,3.52774,0,0,1,5.046,1.41864H15.17562a.194.194,0,1,1,0,.388H5.04774A3.16533,3.16533,0,0,0,1.69748,5.154V13.7297A.19393.19393,0,0,1,1.50351,13.92368Z"/>
        <path class="cls-1" d="M12.95645,32.43564a.1943.1943,0,0,1-.0879-.021l-.16935-.086c-4.44895-2.25924-9.814-7.193-11.09094-11.53894a.19388.19388,0,1,1,.372-.10931C3.22789,24.92559,8.49916,29.76069,12.875,31.98271l.08146.04139.08183-.04139c4.68707-2.38028,11.18-8.27146,11.18-13.14162V5.154a3.19853,3.19853,0,0,0-3.35291-3.34742h-1.5878a.194.194,0,1,1,0-.38795h1.5878A3.62405,3.62405,0,0,1,24.60621,5.154V18.84109c0,5.02549-6.61623,11.06206-11.39233,13.48752l-.16973.086A.19287.19287,0,0,1,12.95645,32.43564Z"/>
        <path class="cls-1" d="M13.46961,30.178a.194.194,0,0,1-.1002-.3602,26.90748,26.90748,0,0,0,5.39553-4.32962.194.194,0,0,1,.28036.26824,27.3142,27.3142,0,0,1-5.47586,4.39383A.1926.1926,0,0,1,13.46961,30.178Z"/>
        <path class="cls-1" d="M12.95642,29.93292a.34994.34994,0,1,1-.34992.34994.34953.34953,0,0,1,.34992-.34994m0-.38795a.7379.7379,0,1,0,.73791.73789.73871.73871,0,0,0-.73791-.73789Z"/>
        <path class="cls-2" d="M12.95948,21.80624a4.84558,4.84558,0,0,1-4.84013-4.84013V12.96867a4.84023,4.84023,0,0,1,9.68045,0v3.99744A4.84574,4.84574,0,0,1,12.95948,21.80624Zm0-13.28965A4.45711,4.45711,0,0,0,8.5073,12.96867v3.99744a4.45227,4.45227,0,0,0,8.90454,0V12.96867A4.45726,4.45726,0,0,0,12.95948,8.51659Z"/>
        <path class="cls-2" d="M12.95976,20.39651a3.26834,3.26834,0,0,1-2.39515-1.04792.219.219,0,0,1-.0574-.16443.22936.22936,0,0,1,.08212-.161.21893.21893,0,0,1,.14226-.05153.233.233,0,0,1,.16992.07483,2.8174,2.8174,0,0,0,2.05806.89714l.02861-.00019a2.85977,2.85977,0,0,0,2.77894-2.89089v-.97746a.2267.2267,0,1,1,.4534,0v.97367a3.31928,3.31928,0,0,1-3.01592,3.33851C13.124,20.39348,13.0416,20.39651,12.95976,20.39651Z"/>
        <path class="cls-2" d="M12.95948,19.094c-.04442,0-.08913-.0017-.13431-.00454a1.99876,1.99876,0,0,1-1.82336-2.02065V12.7981c0-.04414.00123-.08771.00417-.13109a.226.226,0,1,1,.451.02841,1.51219,1.51219,0,0,0-.002.1631l.0001,4.27752a1.50591,1.50591,0,0,0,1.50426,1.50408c.0341,0,.06839-.00095.103-.00341a1.53667,1.53667,0,0,0,1.4015-1.55579V15.22659a.2267.2267,0,1,1,.4534,0V17.136A1.96007,1.96007,0,0,1,12.95948,19.094Z"/>
        <path class="cls-2" d="M10.02549,18.14154a.22442.22442,0,0,1-.21765-.16443,3.25808,3.25808,0,0,1-.10931-.84107V14.04417a.22671.22671,0,1,1,.45341,0V17.136a2.79129,2.79129,0,0,0,.09168.71643.22715.22715,0,0,1-.21813.28907Z"/>
        <path class="cls-2" d="M12.95948,17.79071a.68939.68939,0,0,1-.13042-.01288.66843.66843,0,0,1-.52473-.66641V12.7981a.65565.65565,0,0,1,.655-.65467.697.697,0,0,1,.13033.01269.66875.66875,0,0,1,.525.66641v.24683a.22675.22675,0,0,1-.4535,0V12.7981a.20174.20174,0,0,0-.40348,0V17.136a.20174.20174,0,0,0,.40348,0V14.76286a.22675.22675,0,0,1,.4535,0V17.136A.65575.65575,0,0,1,12.95948,17.79071Z"/>
        <path class="cls-2" d="M15.99377,15.148a.22693.22693,0,0,1-.22665-.22675v-2.0718a2.83759,2.83759,0,0,0-2.80149-2.85888l-.06156.00038a.22564.22564,0,0,1-.00767-.45122c.05209-.00133.13468-.0019.13781-.0019a3.27958,3.27958,0,0,1,3.18631,3.26029v2.12313A.227.227,0,0,1,15.99377,15.148Z"/>
        <path class="cls-2" d="M14.69058,13.95248a.227.227,0,0,1-.22674-.22675v-.86588a1.55689,1.55689,0,0,0-1.50474-1.566,1.499,1.499,0,0,0-.99441.37545.213.213,0,0,1-.142.05342.23153.23153,0,0,1-.157-.06251.22247.22247,0,0,1-.07075-.1684.23182.23182,0,0,1,.07946-.16954,1.94208,1.94208,0,0,1,2.38616-.13677,2.02821,2.02821,0,0,1,.8567,1.68592v.85433A.22693.22693,0,0,1,14.69058,13.95248Z"/>
        <path class="cls-2" d="M9.9303,12.85947a.22938.22938,0,0,1-.16641-.07179.21923.21923,0,0,1-.06081-.16348,3.26193,3.26193,0,0,1,1.82866-2.75867.217.217,0,0,1,.09557-.02216.23077.23077,0,0,1,.20961.14.22838.22838,0,0,1-.11319.29286,2.80877,2.80877,0,0,0-1.56725,2.365A.22907.22907,0,0,1,9.9303,12.85947Z"/>
      </g>
    </g>
  </g>
</svg>
