<svg xmlns="http://www.w3.org/2000/svg" viewBox="0 0 63.57 63.57"><defs><style>.cls-1{fill:#FFF}.cls-2{fill:#FFF;}</style></defs><g id="Layer_2" data-name="Layer 2"><g id="Layer_2-2" data-name="Layer 2"><path class="cls-1" d="M25.43,35.3a2.09,2.09,0,0,0,1.86-1.14l-3.41-2.35a2.09,2.09,0,0,0,1.55,3.49Z"/><path class="cls-1" d="M19,16.31a.73.73,0,0,1,.62-.87l1.18-.17c.17,0,.37,0,.49,0h.05l.09.12,0,0,0,0a17.05,17.05,0,0,1,1.07,1.45,6.73,6.73,0,0,1,.38.65.74.74,0,0,1-.21.92l-1.93,1.47a.74.74,0,0,1-1.17-.45Z"/><path class="cls-1" d="M37.75,35.3a2.11,2.11,0,0,1-1.86-1.14l3.41-2.35a2.05,2.05,0,0,1,.54,1.4A2.09,2.09,0,0,1,37.75,35.3Z"/><path class="cls-1" d="M40.47,18.42a.72.72,0,0,1-.21-.92,6.51,6.51,0,0,1,.37-.65A17.05,17.05,0,0,1,41.7,15.4l0,0,0,0,.09-.12h0c.13,0,.32,0,.49,0l1.19.17a.73.73,0,0,1,.62.87l-.62,3.13a.74.74,0,0,1-1.17.45Z"/><path class="cls-2" d="M30.07,33.26a.49.49,0,0,1-.35-.15L25.88,29.3a.32.32,0,0,0-.36-.06L20,32a.49.49,0,0,1-.67-.22.5.5,0,0,1,.22-.67l5.54-2.75a1.32,1.32,0,0,1,1.52.24l3.83,3.81a.5.5,0,0,1-.35.86Z"/><path class="cls-2" d="M31.72,50.7h-.26A11.61,11.61,0,0,1,23.25,47a18.22,18.22,0,0,1-4-6.3.5.5,0,0,1,.93-.36A17.28,17.28,0,0,0,24,46.26a10.63,10.63,0,0,0,7.5,3.44h.26a10.65,10.65,0,0,0,7.51-3.44,17.26,17.26,0,0,0,4.07-6.64h0a2.75,2.75,0,0,0,.05-1.18l-.75-2.95-5.8,3.34a1.29,1.29,0,0,1-1.53-.2l-2.55-2.54a.5.5,0,0,1,0-.7.5.5,0,0,1,.71,0L36,37.92a.27.27,0,0,0,.32,0l5.91-3.41a.9.9,0,0,1,1.33.56l.78,3.08a3.63,3.63,0,0,1-.07,1.74,18.33,18.33,0,0,1-4.31,7A11.65,11.65,0,0,1,31.72,50.7Z"/><path class="cls-1" d="M34.25,39.58,31.89,42a.43.43,0,0,1-.6,0l-2.36-2.37a.36.36,0,0,1,0-.54l.22-.22a.47.47,0,0,1,.33-.13h0l2.1,0,2.11,0a.44.44,0,0,1,.33.13l.22.22A.36.36,0,0,1,34.25,39.58Z"/><path class="cls-2" d="M19,39.28h0a1.62,1.62,0,0,1-.64-.24,8.41,8.41,0,0,1-3.63-6.9V29.06A8.41,8.41,0,0,1,17.38,23L15.85,15.4a2.18,2.18,0,0,1,.33-1.61,2.12,2.12,0,0,1,1.35-.91L20,12.41a6.09,6.09,0,0,1,1.05-.1,2.85,2.85,0,0,1,2.6,1c.22.28.64.87.95,1.32a13.91,13.91,0,0,1,14.07,0l0-.08c.31-.44.69-1,.9-1.25a2.89,2.89,0,0,1,2.6-1,5.41,5.41,0,0,1,1,.1l2.42.47A2.12,2.12,0,0,1,47,13.8a2.06,2.06,0,0,1,.31,1.6L45.82,23a8.41,8.41,0,0,1,2.62,6.09v3.08a8.38,8.38,0,0,1-2.51,6,.48.48,0,0,1-.7,0,.5.5,0,0,1,0-.71,7.4,7.4,0,0,0,2.21-5.26V29.06a7.43,7.43,0,0,0-2.36-5.41.84.84,0,0,1-.26-.79l1.53-7.66a1.16,1.16,0,0,0-.16-.85,1.2,1.2,0,0,0-.74-.49l-2.4-.47a5.31,5.31,0,0,0-.87-.08c-.86,0-1.37,0-1.81.59-.21.26-.57.78-.87,1.2l-.26.37a.62.62,0,0,1-.85.17,12.87,12.87,0,0,0-13.59,0,.64.64,0,0,1-.86-.17c-.29-.43-.85-1.22-1.12-1.57-.43-.56-.94-.59-1.81-.59a5.35,5.35,0,0,0-.86.08l-2.42.47a1.11,1.11,0,0,0-.72.48,1.22,1.22,0,0,0-.18.87l1.54,7.65a.84.84,0,0,1-.26.79,7.44,7.44,0,0,0-2.37,5.41v3.08a7.39,7.39,0,0,0,3.11,6l.76-3a.89.89,0,0,1,.52-.61.9.9,0,0,1,.8.05L26.85,38a.28.28,0,0,0,.33,0l9.38-9.32a1.32,1.32,0,0,1,1.52-.25l5.54,2.75a.49.49,0,0,1,.22.67.5.5,0,0,1-.67.23l-5.54-2.75a.3.3,0,0,0-.36.06l-9.39,9.32a1.26,1.26,0,0,1-1.53.2l-5.8-3.34-.75,2.95C19.66,39,19.4,39.28,19,39.28Z"/><path class="cls-2" d="M31.59,60.68A28.78,28.78,0,0,1,2.86,34.78a.52.52,0,0,1,.45-.55.51.51,0,0,1,.55.45,27.78,27.78,0,0,0,27.73,25h.11a.5.5,0,0,1,.58.41.52.52,0,0,1-.42.58Z"/><path class="cls-2" d="M3.21,32.28h0a.5.5,0,0,1-.5-.5A28.77,28.77,0,0,1,28.79,3.07a.51.51,0,0,1,.55.45.5.5,0,0,1-.45.55A27.77,27.77,0,0,0,3.71,31.78.5.5,0,0,1,3.21,32.28Z"/><path class="cls-2" d="M34.73,60.5a.51.51,0,0,1-.5-.44.5.5,0,0,1,.45-.55,27.82,27.82,0,0,0,24.79-27.7.52.52,0,0,1,.5-.51.48.48,0,0,1,.5.48v0A28.81,28.81,0,0,1,34.79,60.5Z"/><path class="cls-2" d="M59.81,29.34a.51.51,0,0,1-.5-.45A27.78,27.78,0,0,0,31.78,3.94a.5.5,0,0,1-.5-.5.5.5,0,0,1,.5-.5h0A28.79,28.79,0,0,1,60.31,28.79a.5.5,0,0,1-.45.55Z"/><path class="cls-2" d="M31.79,6.77a.5.5,0,0,1-.5-.5V.5a.5.5,0,0,1,.5-.5.5.5,0,0,1,.5.5V6.27A.5.5,0,0,1,31.79,6.77Z"/><path class="cls-2" d="M31.79,63.57a.5.5,0,0,1-.5-.5V57.3a.5.5,0,0,1,.5-.5.5.5,0,0,1,.5.5v5.77A.5.5,0,0,1,31.79,63.57Z"/><path class="cls-2" d="M63.07,32.29H57.3a.5.5,0,0,1-.5-.5.5.5,0,0,1,.5-.5h5.77a.5.5,0,0,1,.5.5A.5.5,0,0,1,63.07,32.29Z"/><path class="cls-2" d="M6.27,32.29H.5a.5.5,0,0,1-.5-.5.5.5,0,0,1,.5-.5H6.27a.5.5,0,0,1,.5.5A.5.5,0,0,1,6.27,32.29Z"/></g></g></svg>